<?xml version="1.0" standalone="no"?>
<!DOCTYPE svg PUBLIC "-//W3C//DTD SVG 20010904//EN"
 "http://www.w3.org/TR/2001/REC-SVG-20010904/DTD/svg10.dtd">
<svg version="1.0" xmlns="http://www.w3.org/2000/svg"
 width="450.000000pt" height="450.000000pt" viewBox="0 0 450.000000 450.000000"
 preserveAspectRatio="xMidYMid meet">

<g transform="translate(0.000000,450.000000) scale(0.100000,-0.100000)"
fill="#000000" stroke="none">
<path d="M2547 3790 c-29 -23 -41 -64 -31 -104 5 -21 120 -115 495 -407 460
-357 491 -379 529 -379 30 0 47 7 65 25 33 32 34 94 3 128 -18 19 -673 531
-921 720 -56 43 -100 48 -140 17z"/>
<path d="M2196 3485 c-74 -50 -1522 -1178 -1548 -1206 -39 -41 -38 -90 1 -130
53 -53 80 -44 233 74 73 57 139 107 146 111 9 6 12 -106 12 -548 l0 -555 -186
-3 -186 -3 -24 -28 c-32 -38 -32 -86 2 -126 l26 -31 1580 0 c1112 0 1585 3
1600 11 26 14 48 67 41 102 -3 15 -19 38 -35 52 -29 25 -32 25 -214 25 l-184
0 0 560 c0 308 2 560 5 560 3 0 65 -47 138 -103 72 -57 142 -109 154 -115 80
-43 168 40 128 120 -12 24 -212 185 -731 588 -926 719 -861 670 -893 670 -16
0 -45 -11 -65 -25z m573 -590 l501 -390 0 -637 0 -638 -270 0 -270 0 0 519 0
519 -31 26 -31 26 -413 0 -414 0 -28 -24 -28 -24 -3 -521 -3 -521 -274 0 -275
0 0 633 0 632 512 398 c282 218 515 396 519 395 4 -2 232 -178 508 -393z
m-229 -1215 l0 -450 -285 0 -285 0 0 450 0 450 285 0 285 0 0 -450z"/>
</g>
</svg>
