<?xml version="1.0" standalone="no"?>
<!DOCTYPE svg PUBLIC "-//W3C//DTD SVG 20010904//EN"
 "http://www.w3.org/TR/2001/REC-SVG-20010904/DTD/svg10.dtd">
<svg version="1.0" xmlns="http://www.w3.org/2000/svg"
 width="450.000000pt" height="450.000000pt" viewBox="0 0 450.000000 450.000000"
 preserveAspectRatio="xMidYMid meet">

<g transform="translate(0.000000,450.000000) scale(0.100000,-0.100000)"
fill="#000000" stroke="none">
<path d="M1612 3791 c-194 -97 -326 -169 -336 -183 -13 -18 -16 -54 -16 -201
l0 -179 29 -29 c20 -20 39 -29 61 -29 22 0 41 9 61 29 29 29 29 30 29 150 l0
121 250 0 250 0 0 -22 c0 -39 -79 -610 -85 -617 -3 -3 -241 -69 -528 -148
-457 -124 -525 -145 -544 -168 -22 -25 -23 -34 -23 -206 l0 -181 29 -29 c40
-39 82 -39 122 0 29 29 29 30 29 150 l0 121 160 0 160 0 0 -121 c0 -120 0
-121 29 -150 40 -39 82 -39 122 0 29 29 29 30 29 150 l0 121 181 0 181 0 -6
-27 c-10 -48 -236 -1761 -236 -1786 0 -32 33 -73 66 -81 36 -9 82 11 99 43 10
19 83 64 268 164 l255 138 251 -136 c181 -99 257 -146 275 -170 15 -19 39 -36
55 -40 40 -8 86 17 99 54 8 23 -15 217 -109 922 -65 492 -119 899 -119 906 0
10 41 13 180 13 l180 0 0 -123 c0 -110 2 -126 20 -145 28 -29 64 -37 101 -21
46 18 59 60 59 184 l0 105 160 0 160 0 0 -123 c0 -110 2 -126 20 -145 45 -48
121 -35 146 24 17 41 19 316 3 363 -6 17 -23 38 -38 45 -15 8 -236 71 -491
141 -256 69 -488 133 -515 141 l-50 14 -39 293 c-21 160 -40 304 -43 320 l-5
27 256 0 256 0 0 -125 c0 -123 1 -126 26 -150 45 -42 110 -30 139 25 18 36 21
318 4 369 -10 30 -37 45 -340 197 l-329 164 -314 0 -315 0 -319 -159z m1028
-81 l115 -59 -510 0 -510 0 115 59 115 59 280 0 280 0 115 -59z m-270 -246 c0
-8 -114 -153 -121 -154 -7 0 -108 126 -115 145 -5 13 12 15 115 15 67 0 121
-3 121 -6z m-231 -214 l32 -40 -43 -55 c-23 -30 -44 -52 -46 -50 -4 3 19 185
23 185 1 0 16 -18 34 -40z m265 -42 c4 -40 9 -82 12 -93 4 -15 -4 -10 -26 15
-64 71 -65 74 -33 119 15 21 31 37 34 35 4 -2 9 -36 13 -76z m-91 -174 l58
-75 -47 -54 c-38 -45 -52 -55 -78 -55 -26 0 -39 9 -71 50 -22 28 -40 55 -40
60 0 11 107 150 115 149 3 0 31 -34 63 -75z m-193 -370 c0 -12 -93 -114 -105
-114 -9 0 -10 13 -4 48 4 26 8 53 8 60 1 12 101 19 101 6z m360 -16 c0 -13 3
-40 6 -60 9 -50 -11 -50 -51 -1 -16 21 -38 48 -48 60 l-18 23 55 0 c51 0 56
-2 56 -22z m-650 -45 c0 -52 -6 -54 -156 -51 l-139 3 135 37 c74 20 141 37
148 37 7 1 12 -11 12 -26z m989 -10 l136 -38 -139 -3 c-76 -1 -140 -1 -141 0
-9 12 -12 78 -3 78 6 0 72 -17 147 -37z m-536 -8 l28 -35 -61 0 c-46 0 -59 3
-54 13 10 18 47 57 53 57 3 0 19 -16 34 -35z m167 -229 c-8 -8 -57 -50 -109
-94 l-94 -80 -104 90 c-57 49 -103 91 -103 94 0 2 95 4 212 4 183 0 210 -2
198 -14z m-386 -174 c47 -40 86 -76 85 -80 -1 -11 -220 -195 -225 -190 -7 8
40 348 48 346 3 -2 45 -36 92 -76z m490 -103 c13 -96 23 -175 22 -176 -2 -3
-231 195 -231 201 0 8 177 157 182 153 2 -2 14 -82 27 -178z m-155 -184 c78
-66 141 -123 141 -126 0 -3 -66 -50 -146 -103 l-146 -97 -149 98 c-82 54 -148
100 -148 103 1 10 292 251 300 248 4 -2 71 -57 148 -123z m-381 -320 l120 -80
-146 -97 c-80 -54 -148 -96 -150 -94 -6 7 42 356 49 354 4 -2 61 -39 127 -83z
m616 -96 c13 -96 22 -175 21 -177 -2 -2 -69 40 -149 94 -81 54 -143 101 -139
104 19 18 237 159 240 156 2 -2 14 -81 27 -177z m-194 -186 l190 -126 -142
-79 c-79 -42 -165 -89 -193 -104 l-50 -26 -187 103 c-104 56 -188 105 -187
108 0 5 369 251 377 251 1 0 88 -57 192 -127z m-483 -313 c80 -44 150 -80 154
-80 28 0 -11 -25 -171 -111 -99 -53 -180 -92 -180 -85 0 21 45 356 48 356 1 0
69 -36 149 -80z m758 -106 c13 -98 23 -179 22 -180 -3 -4 -357 191 -357 196 0
6 303 170 307 166 2 -2 14 -84 28 -182z"/>
</g>
</svg>
