<?xml version="1.0" standalone="no"?>
<!DOCTYPE svg PUBLIC "-//W3C//DTD SVG 20010904//EN"
 "http://www.w3.org/TR/2001/REC-SVG-20010904/DTD/svg10.dtd">
<svg version="1.0" xmlns="http://www.w3.org/2000/svg"
 width="500.000000pt" height="500.000000pt" viewBox="0 0 500.000000 500.000000"
 preserveAspectRatio="xMidYMid meet">

<g transform="translate(0.000000,500.000000) scale(0.100000,-0.100000)"
fill="#000000" stroke="none">
<path d="M4030 4385 c-96 -7 -218 -16 -270 -19 -52 -4 -107 -9 -121 -12 -24
-5 -32 -27 -161 -432 -75 -235 -139 -434 -143 -443 -5 -12 1 -18 22 -22 29 -6
843 -10 843 -4 0 2 16 73 36 158 156 677 165 719 149 748 -8 16 -22 31 -30 35
-22 8 -116 6 -325 -9z"/>
<path d="M3105 4324 c-93 -7 -193 -13 -222 -13 -30 -1 -57 -7 -66 -15 -11 -12
-172 -398 -313 -753 -31 -79 -31 -81 -12 -86 11 -3 165 -5 341 -4 l321 2 49
155 c27 85 86 274 132 420 46 146 86 275 90 288 6 22 5 22 -72 21 -43 -1 -154
-7 -248 -15z"/>
<path d="M2489 4286 c-2 -2 -65 -6 -139 -10 -323 -16 -526 -33 -552 -47 -15
-8 -388 -745 -388 -767 0 -4 195 -8 433 -10 349 -3 435 -1 444 10 5 7 42 92
81 188 38 96 108 270 155 385 115 286 111 255 34 255 -35 0 -66 -2 -68 -4z"/>
<path d="M1177 2986 c-81 -167 -147 -308 -147 -315 0 -7 25 -11 73 -12 39 0
88 -2 107 -4 28 -3 327 -20 673 -38 l58 -3 20 38 c11 21 72 168 135 326 64
158 118 293 121 300 4 9 -89 12 -444 12 l-450 0 -146 -304z"/>
<path d="M2397 3278 c-3 -7 -61 -152 -130 -323 -68 -170 -127 -320 -131 -332
-6 -20 -3 -22 56 -27 35 -3 160 -10 278 -16 118 -6 256 -13 307 -16 l92 -6 70
219 c58 182 124 390 155 491 l7 22 -349 0 c-271 0 -351 -3 -355 -12z"/>
<path d="M3277 3283 c-7 -11 -227 -714 -227 -724 0 -10 57 -17 190 -24 58 -3
179 -10 270 -15 333 -19 470 -23 470 -14 0 6 41 183 90 394 50 211 90 386 90
387 0 7 -879 2 -883 -4z"/>
<path d="M943 2498 c-15 -17 -231 -462 -295 -606 -48 -109 -49 -114 -33 -138
9 -14 26 -29 38 -34 12 -5 130 -21 262 -35 132 -14 256 -28 275 -30 19 -3 87
-9 150 -15 63 -6 136 -13 161 -16 l46 -6 67 163 c36 90 111 277 164 414 82
209 96 251 83 256 -9 3 -70 9 -136 13 -66 4 -190 11 -275 16 -85 5 -209 11
-275 15 -66 3 -143 8 -171 11 -35 3 -54 1 -61 -8z"/>
<path d="M2045 2404 c-9 -22 -61 -149 -115 -284 -54 -135 -121 -301 -149 -369
-56 -136 -59 -151 -33 -151 9 0 51 -5 92 -10 62 -8 288 -35 480 -56 113 -12
215 -21 219 -18 6 5 260 816 267 852 6 31 5 32 -27 32 -19 0 -124 7 -234 15
-110 7 -264 17 -342 21 l-142 7 -16 -39z"/>
<path d="M2997 2383 c-17 -28 -277 -853 -277 -878 0 -8 7 -15 15 -15 13 0 126
-12 470 -49 50 -6 122 -13 160 -17 39 -4 77 -8 85 -9 37 -7 198 -18 220 -16
14 1 33 10 42 19 17 17 65 207 178 705 46 204 47 207 26 212 -12 2 -73 6 -136
10 -137 7 -570 32 -692 40 -47 3 -89 2 -91 -2z"/>
<path d="M2278 1343 c-27 -28 -28 -32 -28 -151 0 -108 -2 -123 -17 -128 -64
-22 -148 -69 -187 -104 -77 -71 -142 -238 -117 -302 21 -55 -7 -53 658 -53
l615 0 20 25 c17 21 20 35 15 86 -11 145 -127 288 -272 335 l-50 16 -5 99 c-6
106 -12 129 -37 138 -31 12 -324 49 -483 61 -84 7 -85 7 -112 -22z"/>
</g>
</svg>
